<mxfile host="app.diagrams.net" modified="2023-04-20T13:41:52.040Z" agent="Mozilla/5.0 (Windows NT 10.0; Win64; x64) AppleWebKit/537.36 (KHTML, like Gecko) Chrome/112.0.0.0 Safari/537.36" version="21.2.1" etag="hTAkTg016cH3p1kDCSbi" type="github">
  <diagram name="Страница 1" id="ufx4ufdUM38GnKiKQN-z">
    <mxGraphModel>
      <root>
        <mxCell id="0" />
        <mxCell id="1" parent="0" />
      </root>
    </mxGraphModel>
  </diagram>
</mxfile>
